# Blender v3.4.1 OBJ File: ''
# www.blender.org
mtllib patriangle.mtl
o Cube.001
v 1.000000 0.000000 -1.000000
v 1.000000 0.000000 0.000000
v 0.000000 0.000000 -1.000000
v 0.000000 0.000000 0.000000
v 0.500000 1.000000 -0.500000
vt 0.097989 1.142606
vt 0.854389 0.022013
vt 0.097989 0.022013
vt 0.097989 0.022013
vt 0.854389 0.022013
vt 0.476189 1.142606
vt 0.097989 0.022013
vt 0.854389 0.022013
vt 0.854389 1.142606
vn 0.0000 -1.0000 0.0000
vn 0.8944 0.4472 0.0000
vn 0.0000 0.4472 -0.8944
vn -0.8944 0.4472 0.0000
vn 0.0000 0.4472 0.8944
usemtl Material.001
s off
f 3/1/1 2/2/1 4/3/1
f 2/4/2 1/5/2 5/6/2
f 1/5/3 3/7/3 5/6/3
f 3/8/4 4/3/4 5/6/4
f 4/3/5 2/2/5 5/6/5
f 3/1/1 1/9/1 2/2/1
