# Blender v3.4.1 OBJ File: 'Plane.blend'
# www.blender.org
mtllib Plane.mtl
o Plane
v -0.097132 8.551979 4.897452
v -0.097132 2.764853 4.897452
v -0.097132 8.551979 -4.820397
v -0.097132 2.764853 -4.820397
v 0.165399 8.551979 -4.820397
v 0.165399 8.551979 4.897452
v 0.165400 2.764853 4.897452
v 0.165400 2.764853 -4.820397
v -0.097132 6.859801 1.430791
v -0.097132 4.309599 1.430791
v -0.097132 6.859801 -1.353737
v -0.097132 4.309599 -1.353737
v -0.676862 6.675113 1.430791
v -0.676862 4.376154 1.430791
v -0.676862 6.675113 -1.353737
v -0.676862 4.376154 -1.353737
v -0.676862 5.824378 0.398777
v -0.676862 5.359243 0.398777
v -0.676862 5.824378 -0.321722
v -0.676862 5.359243 -0.321722
v -0.944851 5.783170 0.398777
v -0.944850 5.400450 0.398777
v -0.944851 5.783170 -0.321722
v -0.944850 5.400450 -0.321722
v -0.944851 5.959416 0.481522
v -0.944850 5.351089 0.481522
v -0.944851 5.959416 -0.404468
v -0.944850 5.351089 -0.404468
v -1.103456 5.922225 0.481522
v -1.103456 5.313899 0.481522
v -1.103456 5.922225 -0.404468
v -1.103456 5.313899 -0.404468
v -1.901952 5.782215 0.481522
v -1.901952 5.173888 0.481522
v -1.901952 5.782215 -0.404468
v -1.901952 5.173888 -0.404468
v -1.103456 3.383288 0.481522
v -1.103456 3.383288 -0.404468
v -1.901952 3.374537 0.481522
v -1.901952 3.374537 -0.404468
v -1.157670 3.383288 0.398777
v -1.157670 3.383288 -0.321722
v -1.847738 3.374537 0.398777
v -1.847738 3.374537 -0.321722
v -1.157670 2.354213 0.398776
v -1.157670 2.354213 -0.321722
v -1.847738 2.345462 0.398776
v -1.847738 2.345462 -0.321722
v 0.941073 2.358065 1.772379
v 0.941073 2.358065 -1.695325
v -2.135096 2.341609 1.772379
v -2.135096 2.341609 -1.695325
v 0.941669 2.246532 1.772379
v 0.941669 2.246532 -1.695325
v -2.134500 2.230077 1.772379
v -2.134500 2.230077 -1.695325
vt 0.391101 0.016972
vt 0.126369 0.241086
vt 0.016972 0.016972
vt 0.408073 0.628243
vt 0.782201 0.000000
vt 0.782201 0.628243
vt 0.408073 0.645216
vt 0.391101 0.645216
vt 0.016972 0.645216
vt 0.000000 0.016972
vt 0.391101 0.000000
vt 0.016972 0.662188
vt 0.000000 0.699666
vt 0.037725 0.879682
vt 0.000000 0.879682
vt 0.126369 0.421102
vt 0.291235 0.421101
vt 0.291235 0.241086
vt 0.186349 0.879682
vt 0.131350 0.766385
vt 0.186349 0.699666
vt 0.225683 0.879682
vt 0.225683 0.699666
vt 0.033422 0.917160
vt 0.198289 0.917160
vt 0.033422 0.662188
vt 0.037725 0.699666
vt 0.377594 0.722328
vt 0.394919 0.694922
vt 0.394919 0.719664
vt 0.101280 0.812964
vt 0.131350 0.812964
vt 0.101280 0.766385
vt 0.265072 0.853914
vt 0.237139 0.848565
vt 0.276466 0.848565
vt 0.394919 0.692258
vt 0.377594 0.664852
vt 0.394919 0.662188
vt 0.360065 0.714116
vt 0.342536 0.667537
vt 0.360065 0.667537
vt 0.377594 0.708767
vt 0.360065 0.662188
vt 0.377594 0.662188
vt 0.942722 0.141219
vt 1.000000 0.130687
vt 1.000000 0.141219
vt 0.265072 0.662188
vt 0.237139 0.667537
vt 0.240330 0.662188
vt 0.342536 0.714116
vt 0.339345 0.662188
vt 0.339345 0.781341
vt 0.327951 0.729412
vt 0.339345 0.734762
vt 0.234735 0.838312
vt 0.265011 0.786690
vt 0.274062 0.838312
vt 0.327951 0.786690
vt 0.317420 0.729412
vt 0.274062 0.677791
vt 0.234735 0.677791
vt 0.225683 0.729412
vt 0.265011 0.729412
vt 0.891101 0.121636
vt 0.942722 0.005877
vt 0.942722 0.130687
vt 0.317420 0.786690
vt 0.833823 0.005311
vt 0.885751 0.001806
vt 0.891101 0.005311
vt 1.000000 0.005877
vt 0.833823 0.121636
vt 0.782201 0.005877
vt 0.363453 0.854480
vt 0.408065 0.920443
vt 0.363453 0.921008
vt 0.830260 0.000000
vt 0.994651 0.002372
vt 0.939276 0.000489
vt 0.677350 0.724256
vt 0.614156 0.635455
vt 0.813029 0.635454
vt 0.272262 0.853914
vt 0.225683 0.920443
vt 0.225683 0.853915
vt 0.316874 0.854480
vt 0.272262 0.920443
vt 0.316874 0.921008
vt 0.813029 0.859637
vt 0.614156 0.866847
vt 0.614156 0.859636
vt 0.632735 0.770835
vt 0.632735 0.724256
vt 0.677350 0.770835
vt 0.408073 0.635455
vt 0.606945 0.859636
vt 0.408073 0.859636
vt 0.820240 0.859637
vt 0.614156 0.628244
vt 0.813029 0.628243
vt 0.606945 0.635455
vt 0.408073 0.000000
vt 0.408073 0.016972
vt 0.000000 0.645216
vt 0.016972 0.000000
vt 0.391101 0.662188
vt 0.198289 0.662188
vt 0.377594 0.692258
vt 0.240330 0.853914
vt 0.377594 0.689594
vt 0.360065 0.708767
vt 0.276466 0.667537
vt 0.948072 0.144410
vt 0.225683 0.786690
vt 0.839172 0.001806
vt 0.782201 0.130687
vt 0.408065 0.853915
vt 0.785647 0.000489
vt 0.948072 0.002372
vt 0.894664 0.000000
vt 0.813029 0.866847
vt 0.820240 0.635454
vn -1.0000 -0.0000 -0.0000
vn 1.0000 0.0000 0.0000
vn 0.0000 -1.0000 0.0000
vn 0.0000 1.0000 0.0000
vn 0.0000 0.0000 -1.0000
vn 0.0000 0.0000 1.0000
vn -0.1141 -0.9935 0.0000
vn -0.3035 0.9528 0.0000
vn -0.1520 -0.9884 0.0000
vn -0.1520 0.9884 0.0000
vn 0.2283 -0.9736 0.0000
vn -0.2283 0.9736 0.0000
vn -0.1727 0.9850 0.0000
vn 0.0110 -0.9999 -0.0072
vn -0.0053 1.0000 0.0054
vn -0.0134 0.9999 0.0000
vn -0.0127 0.9999 -0.0002
vn -0.0018 1.0000 0.0000
vn 0.0053 -1.0000 0.0000
vn 1.0000 0.0053 0.0000
vn -1.0000 -0.0053 0.0000
vn 0.0127 -0.9999 0.0083
vn -0.0127 0.9999 0.0002
vn -0.0053 1.0000 -0.0054
usemtl Material
s off
f 4/1/1 11/2/1 3/3/1
f 7/4/2 5/5/2 6/6/2
f 4/1/3 7/7/3 2/8/3
f 1/9/4 5/10/4 3/3/4
f 3/3/5 8/11/5 4/1/5
f 2/8/6 6/12/6 1/9/6
f 10/13/7 16/14/7 12/15/7
f 2/8/1 9/16/1 10/17/1
f 2/8/1 12/18/1 4/1/1
f 3/3/1 9/16/1 1/9/1
f 15/19/1 17/20/1 13/21/1
f 11/22/8 13/21/8 9/23/8
f 12/24/5 15/19/5 11/25/5
f 10/26/6 13/21/6 14/27/6
f 19/28/5 24/29/5 23/30/5
f 15/19/1 20/31/1 19/32/1
f 13/21/1 18/33/1 14/27/1
f 14/27/1 20/31/1 16/14/1
f 23/34/2 28/35/2 27/36/2
f 17/37/6 22/38/6 18/39/6
f 18/40/9 24/41/9 20/42/9
f 19/43/10 21/44/10 17/45/10
f 26/46/11 32/47/11 28/48/11
f 21/49/2 26/50/2 22/51/2
f 22/52/2 28/53/2 24/41/2
f 23/54/2 25/55/2 21/56/2
f 32/57/5 35/58/5 31/59/5
f 27/60/12 29/61/12 25/55/12
f 28/35/5 31/59/5 27/36/5
f 26/50/6 29/62/6 30/63/6
f 35/58/1 34/64/1 33/65/1
f 30/63/6 33/65/6 34/64/6
f 34/66/6 37/67/6 30/68/6
f 31/69/13 33/65/13 29/61/13
f 40/70/3 43/71/3 39/72/3
f 30/68/2 38/73/2 32/47/2
f 36/74/5 38/75/5 40/70/5
f 36/74/1 39/72/1 34/66/1
f 44/76/5 46/77/5 48/78/5
f 38/75/14 44/79/14 40/70/14
f 37/67/3 42/80/3 38/73/3
f 39/72/14 41/81/14 37/67/14
f 45/82/15 51/83/15 49/84/15
f 41/85/2 46/86/2 42/87/2
f 43/88/6 45/89/6 41/85/6
f 43/88/1 48/78/1 47/90/1
f 50/91/5 56/92/5 52/93/5
f 48/94/16 51/83/16 47/95/16
f 46/96/17 52/93/17 48/94/17
f 45/82/18 50/91/18 46/96/18
f 53/97/19 56/98/19 54/99/19
f 49/84/20 54/100/20 50/91/20
f 49/84/6 55/101/6 53/102/6
f 52/93/21 55/103/21 51/83/21
f 4/1/1 12/18/1 11/2/1
f 7/4/2 8/104/2 5/5/2
f 4/1/3 8/105/3 7/7/3
f 1/9/4 6/106/4 5/10/4
f 3/3/5 5/107/5 8/11/5
f 2/8/6 7/108/6 6/12/6
f 10/13/7 14/27/7 16/14/7
f 2/8/1 1/9/1 9/16/1
f 2/8/1 10/17/1 12/18/1
f 3/3/1 11/2/1 9/16/1
f 15/19/1 19/32/1 17/20/1
f 11/22/8 15/19/8 13/21/8
f 12/24/5 16/14/5 15/19/5
f 10/26/6 9/109/6 13/21/6
f 19/28/5 20/110/5 24/29/5
f 15/19/1 16/14/1 20/31/1
f 13/21/1 17/20/1 18/33/1
f 14/27/1 18/33/1 20/31/1
f 23/34/2 24/111/2 28/35/2
f 17/37/6 21/112/6 22/38/6
f 18/40/9 22/52/9 24/41/9
f 19/43/10 23/113/10 21/44/10
f 26/46/11 30/68/11 32/47/11
f 21/49/2 25/114/2 26/50/2
f 22/115/2 26/46/2 28/48/2
f 23/54/2 27/60/2 25/55/2
f 32/57/5 36/116/5 35/58/5
f 27/60/12 31/69/12 29/61/12
f 28/35/5 32/57/5 31/59/5
f 26/50/6 25/114/6 29/62/6
f 35/58/1 36/116/1 34/64/1
f 30/63/6 29/62/6 33/65/6
f 34/66/6 39/72/6 37/67/6
f 31/69/13 35/58/13 33/65/13
f 40/70/3 44/117/3 43/71/3
f 30/68/2 37/67/2 38/73/2
f 36/74/5 32/118/5 38/75/5
f 36/74/1 40/70/1 39/72/1
f 44/76/5 42/119/5 46/77/5
f 38/75/22 42/120/22 44/79/22
f 37/67/3 41/121/3 42/80/3
f 39/72/22 43/122/22 41/81/22
f 45/82/23 47/95/23 51/83/23
f 41/85/2 45/89/2 46/86/2
f 43/88/6 47/90/6 45/89/6
f 43/88/1 44/76/1 48/78/1
f 50/91/5 54/123/5 56/92/5
f 48/94/16 52/93/16 51/83/16
f 46/96/24 50/91/24 52/93/24
f 45/82/18 49/84/18 50/91/18
f 53/97/19 55/103/19 56/98/19
f 49/84/20 53/124/20 54/100/20
f 49/84/6 51/83/6 55/101/6
f 52/93/21 56/98/21 55/103/21
